<?xml version="1.0" encoding="UTF-8"?>
<svg id="Layer_1" xmlns="http://www.w3.org/2000/svg" version="1.1" viewBox="0 0 708.66 708.66">
  <!-- Generator: Adobe Illustrator 30.1.0, SVG Export Plug-In . SVG Version: 2.1.1 Build 136)  -->
  <defs>
    <style>
      .st0 {
        fill: #1bae90;
      }

      .st1 {
        display: none;
        fill: #658bc7;
      }

      .st2 {
        fill: #1d4486;
      }

      .st3 {
        fill: #1982af;
      }
    </style>
  </defs>
  <path class="st0" d="M468.34,323.95s-33.71-19.7-119.2-13.79c0,0,193.05,114.4,105.28,225.94,0,0,215.15-91.02,13.92-212.16Z"/>
  <path class="st1" d="M211.64,360.25c5.4,8.67,13.97,16.26,21.83,22.88,2.46,2.08,6.61,1.67,8.1,4.96-23.01-9.43-44.62-23.3-61.65-42-9.35-10.26-17.54-21.12-22.47-33.16,2.16-.76,3.56-2.4,3.89-5.14,10.49,4.6,1.22,0,11.08,1.06.49-1.99-.49-3.31-.91-5.64,2.59-.47,3.99.58,6.15.89,1.71-2.45,3.15-2.57,4.57-2.11,4.85,1.57,5.35,9.43,7.08,16.65,3.65,15.29,10.82,29.22,19.43,42.18.43.64,1.87.28,2.21.4s.84-.36.69-.95Z"/>
  <path class="st0" d="M389.31,146.91s-315.41,38.4-152.68,232.22c0,0-31.26-1.1-67.02-44.91-31.46-38.55-45.28-88.85-35.87-137.71,12.42-64.52,67.15-140.06,257.39-133.7"/>
  <path class="st2" d="M236.63,379.12s52.54,18.45,111.66,13.88c0,0-151.15-99.35-129.21-179.19,0,0-100.21,74.03,17.55,165.31Z"/>
  <polygon class="st3" points="520.6 106.97 367.05 11.28 367.05 202.66 520.6 106.97"/>
  <path class="st2" d="M308.25,641.17s133.75,19.88,214.39-61.72c45.14-45.68,59.79-113.85,34.58-172.91-13.47-31.55-39.51-63.56-88.88-82.59,0,0,122.22,81.15,6.29,198.7-3.66,3.71-12.8,9.8-12.8,9.8,0,0-33.37,27.69-153.13,24.69"/>
  <polygon class="st3" points="181.4 598.68 334.95 694.37 334.95 502.99 181.4 598.68"/>
</svg>